# xmcd
#
# Track frame offsets: 
#        183
#        9920
#        18200
#        28935
#        39890
#        48818
#        58948
#        64588
#        76303
#        85553
#        97915
#        105593
#        116300
#        128298
#        137740
#        147375
#        156320
#        167995
#        179975
#        190205
#
# Disc length: 2670 seconds
#
# Revision: 2
# Processed by: cddbd v1.5.2PL0 Copyright (c) Steve Scherf et al.
# Submitted via: ExactAudioCopy v1.3
#
DISCID=fb0a6c14
DTITLE=Johnny Cash - At His Mighty Best Volume 3
DYEAR=1992
DGENRE=Country
TTITLE0=Rock Island Line
TTITLE1=I Guess Things Happen That Way
TTITLE2=Fool's All Of Fame
TTITLE3=I Love You Because
TTITLE4=Remember Me
TTITLE5=I Could Never Be Ashamed Of You
TTITLE6=My Treasure
TTITLE7=So Doggone Lonesome
TTITLE8=I Couldn't Keep From Crying
TTITLE9=Next In Line
TTITLE10=If The Good Lord Is Willing
TTITLE11=Train Of Love
TTITLE12=You're The Nearest Thing To Heaven
TTITLE13=New Mexico
TTITLE14=It's Just About Time
TTITLE15=Two Timin' Woman
TTITLE16=Port Of Lonely Hearts
TTITLE17=Doin' My Time
TTITLE18=The Ways Of A Woman In Love
TTITLE19=Goodbye Little Darling
EXTD=
EXTT0=
EXTT1=
EXTT2=
EXTT3=
EXTT4=
EXTT5=
EXTT6=
EXTT7=
EXTT8=
EXTT9=
EXTT10=
EXTT11=
EXTT12=
EXTT13=
EXTT14=
EXTT15=
EXTT16=
EXTT17=
EXTT18=
EXTT19=
PLAYORDER=
